HIERARCHY
ROOT simHips
{
  OFFSET 97.9713 99.8567 -9.0573
  CHANNELS 6 Xposition Yposition Zposition Zrotation Xrotation Yrotation
  JOINT simSpine
  {
    OFFSET -0.000355721 21.3001 -0.016921
    CHANNELS 3 Zrotation Xrotation Yrotation
    JOINT simLeftArm
    {
      OFFSET 13.5181 21.3012 0
      CHANNELS 3 Zrotation Xrotation Yrotation
      JOINT simLeftForeArm
      {
        OFFSET 24.5783 0 0
        CHANNELS 3 Zrotation Xrotation Yrotation
        JOINT simLeftHand
        {
          OFFSET 24.5783 0 0
          CHANNELS 3 Zrotation Xrotation Yrotation
          End Site
          {
            OFFSET 7.32568 1.52588e-05 0.0169305
          }
        }
      }
    }
    JOINT simHead
    {
      OFFSET 0 27.4458 -0.00489235
      CHANNELS 3 Zrotation Xrotation Yrotation
      End Site
      {
        OFFSET 0 0 0
      }
    }
    JOINT simRightArm
    {
      OFFSET -13.5174 21.3012 0
      CHANNELS 3 Zrotation Xrotation Yrotation
      JOINT simRightForeArm
      {
        OFFSET -24.5783 0 0
        CHANNELS 3 Zrotation Xrotation Yrotation
        JOINT simRightHand
        {
          OFFSET -24.5783 0 0
          CHANNELS 3 Zrotation Xrotation Yrotation
          End Site
          {
            OFFSET -7.32568 1.52588e-05 0.0169305
          }
        }
      }
    }
  }
  JOINT simRightUpLeg
  {
    OFFSET -8.44614 -9.41038 0.835684
    CHANNELS 3 Zrotation Xrotation Yrotation
    JOINT simRightLeg
    {
      OFFSET 0 -40.9639 0
      CHANNELS 3 Zrotation Xrotation Yrotation
      JOINT simRightFoot
      {
        OFFSET 0 -40.9639 0
        CHANNELS 3 Zrotation Xrotation Yrotation
        End Site
        {
          OFFSET 0.50614 -9.67405 14.6709
        }
      }
    }
  }
  JOINT simLeftUpLeg
  {
    OFFSET 8.44614 -9.41038 0.835684
    CHANNELS 3 Zrotation Xrotation Yrotation
    JOINT simLeftLeg
    {
      OFFSET 0 -40.9639 0
      CHANNELS 3 Zrotation Xrotation Yrotation
      JOINT simLeftFoot
      {
        OFFSET 0 -40.9639 0
        CHANNELS 3 Zrotation Xrotation Yrotation
        End Site
        {
          OFFSET -0.50614 -9.67405 14.6709
        }
      }
    }
  }
}
MOTION
Frames:	14
Frame Time:	0.0333333
155.272 105.773 -8.24282 -31.0313 5.1396 -14.2983 8.80527 22.7672 -27.2124 -40.2593 35.2042 -38.3478 27.96 -6.70654 -82.359 17.1471 -6.53793 3.2786 25.9562 1.07731 -17.0501 25.2288 39.1342 16.9542 -31.1469 -20.2719 73.9583 14.7801 -14.4559 15.5151 9.59156 -79.6575 12.517 165.925 56.2235 -151.66 1.55365 -22.8797 -0.715553 38.5524 -10.1387 7.01853 0.740751 1.40903e-05 0.0475578 -5.81654 22.3685 -0.473581 
154.375 106.508 -6.18808 -37.9845 6.98179 -14.0901 17.4198 23.0981 -25.8425 -53.8832 41.9591 -16.9251 28.224 -7.0807 -83.5227 15.427 -7.66158 5.43786 31.065 -5.79692 -18.6955 35.8824 36.4402 -4.41126 -27.4022 -13.3451 59.8742 10.2132 -13.6661 12.2247 -59.7646 -81.8951 -44.597 165.085 57.802 -150.699 3.12961 -22.6503 1.60271 46.2005 -8.88034 12.557 0.742981 0.0906624 0.0932656 -4.22327 22.5616 -1.19217 
153.264 106.736 -4.00805 -44.2545 7.68672 -12.4493 25.3186 23.5061 -24.0409 -72.4688 42.9749 12.0565 28.9607 -8.21853 -86.964 12.2098 -1.98344 6.00707 34.7942 -13.1336 -24.5569 44.1313 30.7028 -18.9424 -20.1525 -5.90071 40.9541 7.77516 -14.8291 11.1911 -65.1708 -71.3772 -36.1166 153.456 69.5333 -140.369 3.9581 -19.4526 1.68973 52.8373 -7.85331 17.1469 0.732837 -2.57062e-05 0.0938215 -3.83741 22.1628 -2.33872 
151.419 106.385 -1.78698 -47.0226 5.99077 -8.534 28.5031 22.9778 -22.4909 -82.0613 35.3912 35.6686 29.5056 -9.1675 -89.7379 9.90924 -0.473847 5.53033 37.1571 -16.3485 -36.4988 50.5489 20.7429 -27.7979 -10.1172 -0.990279 19.7609 6.45733 -15.9204 10.2186 -58.4866 -53.8862 -15.1904 65.8655 79.1356 -55.2539 4.56524 -6.89584 3.22352 55.2364 -8.11361 17.3186 0.713633 0.0442742 0.0554103 -4.24875 19.0317 -1.94716 
148.943 105.577 0.705826 -45.794 2.63535 -2.50248 26.0455 20.7383 -19.3935 -78.0467 30.4235 48.8156 29.8351 -9.79708 -91.5378 7.35897 -3.10615 6.09085 39.599 -14.5085 -50.5238 55.4822 5.79695 -35.5366 0.546141 -0.0356168 0.00168499 8.04379 -30.4985 9.39364 -57.2925 -26.8552 0.149657 11.7266 47.1392 -4.9157 6.94854 13.9034 5.6608 53.9046 -9.34459 14.0047 0.249833 -2.35348e-05 -0.213768 -3.92789 14.1259 -3.91089 
144.541 105.362 3.06282 -43.609 -1.37881 4.88359 21.4614 17.4984 -14.2395 -66.7754 38.3467 49.9113 30.2105 -10.5789 -93.735 4.77047 -4.74346 6.57484 41.515 -10.7581 -59.0851 64.5727 -10.7125 -48.2203 1.98107 -0.0821749 -2.55982e-05 5.73474 -38.2296 6.40607 -58.5362 7.09742 18.558 -2.09956 0.0523041 -0.0536888 4.34111 14.4853 -1.66091 53.6105 -12.4554 10.5814 -0.326213 2.08642 -0.562207 -6.62156 11.8839 -7.15762 
142.285 105.487 4.18583 -44.4943 -1.50097 6.75533 20.5325 15.6044 -9.51173 -56.8547 44.632 37.9156 30.9148 -12.3012 -98.4532 4.25643 -6.24887 5.87612 40.9951 -7.03766 -54.2914 78.4438 -15.4306 -43.4692 1.39867 -0.0717513 5.41221e-05 9.59615 -46.3782 10.6306 -54.6317 10.0875 23.5748 -1.97834 6.4553e-07 0.000742537 4.0686 10.3626 -7.20454 55.0765 -13.8778 12.0931 -0.319007 2.0708 -0.411493 -2.32592 13.4177 -7.80767 
142.313 105.453 3.80083 -45.5152 -1.36252 1.37782 19.5538 17.3718 -10.1461 -62.9536 42.6725 29.1339 31.4495 -13.9815 -102.938 3.82399 -7.38079 6.31291 33.9962 1.49345 -47.6649 83.3251 -3.71196 -32.1194 -1.94803 0.0823655 3.79074 9.18279 -35.8876 12.0153 -47.4973 -8.96765 7.49215 5.4637 31.6362 -0.868792 7.8953 1.3838 3.13022 55.5626 -8.80044 11.4953 0.196563 0.099767 -0.138673 -0.0903969 15.3616 -1.65334 
141.126 104.988 2.83743 -42.6944 -0.735071 -2.64505 14.5853 19.5722 -11.8001 -71.2795 46.514 18.5728 31.4199 -13.8732 -102.651 4.11822 -0.441468 4.4917 26.6945 4.82636 -45.5171 81.2691 10.3357 -20.2635 -7.80387 -0.449057 15.1872 8.77916 -27.5676 13.8505 -48.1668 -27.923 -5.4637 20.6652 62.755 -12.2255 0.825241 -5.87216 -7.74312 53.3897 -6.33333 17.6581 0.71908 0.137012 0.0288457 -2.02272 15.8901 -3.01782 
139.642 103.977 2.04153 -38.1572 1.3048 -2.97469 9.32863 19.5691 -15.2536 -67.7908 51.1995 3.54203 31.4386 -13.9403 -102.829 1.87256 5.64551 3.25453 23.2172 2.45072 -43.9905 72.6624 19.8692 -8.52384 -15.3815 -2.99288 30.5042 9.83212 -17.7972 14.9818 -50.8973 -39.7459 -19.199 70.7451 79.4721 -60.0977 0.0906057 -8.2607 -6.67735 50.0481 -7.95279 18.994 0.671392 -2.15316e-05 0.116692 -4.71323 15.896 -2.84026 
137.888 103.127 0.996817 -32.8567 1.57972 -4.85517 3.13145 22.2946 -15.471 -63.7076 50.2341 0.187637 31.9432 -16.2087 -108.773 -0.103292 8.22628 1.52542 20.4417 -2.78488 -41.6658 58.099 27.5681 1.88803 -23.0452 -8.31924 47.8722 9.66221 -14.401 15.0407 -43.003 -48.5749 -20.8852 120.696 78.608 -109.263 6.88176 -7.04036 4.00776 45.7008 -7.63294 19.1371 0.619056 6.50239e-06 0.248348 -6.10252 16.8264 -1.40584 
135.892 102.093 0.0639899 -26.16 1.1387 -5.88323 -3.26678 24.586 -12.2445 -59.72 45.7195 5.69633 32.2341 -19.2299 -116.634 -0.090513 7.38874 -0.56264 13.857 -7.43284 -41.6832 42.7643 26.2213 6.77534 -28.5741 -15.1207 63.6683 12.3903 -17.5546 16.6104 -29.3294 -49.931 -13.8257 94.7814 79.9737 -83.9204 8.27081 -6.77259 9.44107 39.6113 -8.06086 17.7153 0.353908 0.151487 0.291843 -6.60275 18.7216 2.44876 
133.786 100.072 -0.661225 -17.9057 1.09632 -5.49629 -9.02423 25.5508 -6.20735 -55.1746 39.443 10.1154 32.2388 -19.5154 -117.379 0.519205 6.0403 -1.59835 2.30136 -12.1497 -45.0652 29.6153 22.6342 4.17415 -31.8347 -22.1821 77.6126 12.4043 -23.3599 17.5512 -20.0021 -46.2112 -5.01917 37.2462 73.3262 -27.982 5.65702 -3.37738 0.800091 33.5366 -12.4361 13.6456 -2.12785 5.89761 -0.0325272 -5.78931 16.488 6.76284 
132.017 96.9346 -1.04176 -9.17709 1.38003 -6.3353 -15.1474 24.4512 3.60834 -54.7983 39.4769 2.80522 32.0312 -16.7794 -110.259 -0.150301 6.14479 3.97634 -7.47716 -11.4229 -48.9069 20.1857 23.7436 5.03321 -32.8715 -26.3574 85.4875 14.8817 -29.9071 19.148 -13.8284 -39.6966 6.78198 15.4695 54.6854 -8.38681 8.6481 12.9436 -6.15805 28.9108 -21.0788 9.9256 -5.85407 21.7933 0.108014 -7.0246 6.86787 7.42666 
